<svg width="12" height="18" viewBox="0 0 12 18" fill="none" xmlns="http://www.w3.org/2000/svg">
<path d="M6.74062 16.976C8.34375 14.8564 12 9.71917 12 6.83361C12 3.33397 9.3125 0.494629 6 0.494629C2.6875 0.494629 0 3.33397 0 6.83361C0 9.71917 3.65625 14.8564 5.25938 16.976C5.64375 17.4811 6.35625 17.4811 6.74062 16.976ZM6 8.94661C4.89687 8.94661 4 7.99906 4 6.83361C4 5.66816 4.89687 4.72062 6 4.72062C7.10313 4.72062 8 5.66816 8 6.83361C8 7.99906 7.10313 8.94661 6 8.94661Z" fill="#A5A7AC"/>
</svg>
