<svg width="14" height="14" viewBox="0 0 14 14" fill="none" xmlns="http://www.w3.org/2000/svg">
<path d="M5.44444 0H0.777778C0.571498 0 0.373667 0.0819442 0.227806 0.227806C0.0819442 0.373667 0 0.571498 0 0.777778V5.44444C0 5.65072 0.0819442 5.84855 0.227806 5.99442C0.373667 6.14028 0.571498 6.22222 0.777778 6.22222H5.44444C5.65072 6.22222 5.84855 6.14028 5.99442 5.99442C6.14028 5.84855 6.22222 5.65072 6.22222 5.44444V0.777778C6.22222 0.571498 6.14028 0.373667 5.99442 0.227806C5.84855 0.0819442 5.65072 0 5.44444 0ZM13.2222 7.77778H8.55556C8.34928 7.77778 8.15145 7.85972 8.00558 8.00558C7.85972 8.15145 7.77778 8.34928 7.77778 8.55556V13.2222C7.77778 13.4285 7.85972 13.6263 8.00558 13.7722C8.15145 13.9181 8.34928 14 8.55556 14H13.2222C13.4285 14 13.6263 13.9181 13.7722 13.7722C13.9181 13.6263 14 13.4285 14 13.2222V8.55556C14 8.34928 13.9181 8.15145 13.7722 8.00558C13.6263 7.85972 13.4285 7.77778 13.2222 7.77778ZM10.8889 0C9.17311 0 7.77778 1.39533 7.77778 3.11111C7.77778 4.82689 9.17311 6.22222 10.8889 6.22222C12.6047 6.22222 14 4.82689 14 3.11111C14 1.39533 12.6047 0 10.8889 0ZM3.11111 7.77778C1.39533 7.77778 0 9.17311 0 10.8889C0 12.6047 1.39533 14 3.11111 14C4.82689 14 6.22222 12.6047 6.22222 10.8889C6.22222 9.17311 4.82689 7.77778 3.11111 7.77778Z" fill="#A5A7AC"/>
</svg>
