<svg width="26" height="19" viewBox="0 0 26 19" fill="none" xmlns="http://www.w3.org/2000/svg">
<path d="M13.4631 1.34933e-05C11.5005 -0.00337791 9.04161 0.632511 6.61583 1.9269C4.19392 3.22129 2.27424 4.91699 1.14736 6.57313C0.0199254 8.22361 -0.284951 9.76105 0.26967 10.8576C0.824843 11.9485 2.22849 12.5759 4.19612 12.5759C6.16376 12.5816 8.62261 11.9429 11.0429 10.6541C13.4687 9.35973 15.3872 7.65838 16.5119 6.00789C17.6421 4.35741 17.9398 2.81997 17.3885 1.72341C16.8317 0.632511 15.4313 1.34933e-05 13.4631 1.34933e-05ZM18.5297 3.97305C18.3367 4.83786 17.9178 5.72528 17.3278 6.59008C16.0819 8.41579 14.0475 10.1963 11.5005 11.5528C8.9534 12.9151 6.36774 13.599 4.19557 13.599C3.17013 13.599 2.21966 13.4407 1.41861 13.1072L2.00245 14.2603C2.55817 15.3569 3.95795 15.9843 5.92669 15.9843C7.89488 15.9843 10.3537 15.3512 12.774 14.0568C15.1998 12.7681 17.1183 11.0667 18.243 9.4106C19.3677 7.76012 19.6764 6.22268 19.1196 5.13178L18.5297 3.97305ZM20.1175 4.92264C20.735 6.43182 20.2388 8.26883 19.059 9.99279C18.017 11.5246 16.4237 13.0111 14.45 14.2547C15.0619 14.3225 15.7015 14.3564 16.352 14.3564C19.081 14.3564 21.5509 13.7573 23.2931 12.8246C25.0407 11.892 26 10.6711 26 9.43887C26 8.20665 25.0407 6.98575 23.2931 6.05311C22.4054 5.57831 21.3249 5.1883 20.1175 4.92264ZM26 11.9768C25.4377 12.6494 24.6658 13.2429 23.7562 13.729C21.8266 14.7577 19.2244 15.3738 16.352 15.3738C15.1832 15.3738 14.0586 15.2721 13.0056 15.0799C11.7265 15.7412 10.4419 16.233 9.20701 16.5552C9.27316 16.5947 9.33932 16.6286 9.41099 16.6682C11.1531 17.6009 13.623 18.2 16.352 18.2C19.081 18.2 21.5509 17.6009 23.2931 16.6682C25.0407 15.7356 26 14.5147 26 13.2825V11.9768Z" fill="#FF455B"/>
</svg>
